<svg id="Layer_1_copy" data-name="Layer 1 copy" xmlns="http://www.w3.org/2000/svg" viewBox="0 0 638.18 539.63"><defs><style>.cls-1{fill:#a07fa7;}</style></defs><title>Logo_Reduced</title><g id="Top_Hand" data-name="Top Hand"><path class="cls-1" d="M756.39,978.55s37.56,126.12,43.23,134.89S841.3,1215.71,951,1240.66c0,0,52.53,21.74,128.64-5.72,28.55-10.38,81.93-44.6,105.28-53.18,26.87-9.87,105.49-44.46,201.2-65.57,0,0-48.8-79.24-139.28-93.23,0,0-59.55-11.84-124,21.1,0,0-27.2,20.46-79,10.64,0,0-41.75-17.8-72.84-19.65s5.51,72.63,105.16,74.46l51.87,1.73s-86.46,76.09-145.65,78.36-81-16.57-102.71-36.42S832,1087.47,820,1045.58,780.79,960.09,756.39,978.55Z" transform="translate(-756.39 -709.19)"/><path class="cls-1" d="M816.86,987.56a293.13,293.13,0,0,1,26.86,74.24c7.31,34.35,59.31,108.26,107.47,112.67a165.75,165.75,0,0,0,80-13.41s57.07-28.55,65.71-37.4-63.69,36-121.44,31.85c0,0-64.58-2.16-88.2-65,0,0-7.47-17-9.61-31.35s-16.55-77.58-56.1-77.08C821.55,982.13,814,982,816.86,987.56Z" transform="translate(-756.39 -709.19)"/><path class="cls-1" d="M764.55,841.46s173.14-47,265-95.3c0,0,52.12-34.17,99.44-36.56s157.53,1.57,221.83,131.86c0,0,14.56,32.23,43.71,137.84,0,0-32.75,27.08-66.18-75.09s-89.49-132.51-121.55-135.09c0,0-35.81-9.42-82.62,11.48s-96.51,60.53-100.8,65.28c0,0,74.36,1.34,105.48,12.11,34.83,12.1,56.24,27.34,62.67,50a11,11,0,0,1-.53,7.33c-2,4.65-4.34,7.94-19.89,5.59-1.88-.3-33.31-6.09-59.05-17-17.61-7.46-47.44-7.13-77,5.51-38,16.29-35.34,20.75-84,26.06-54.09,6-101.32-11.65-140.24-45S764.55,841.46,764.55,841.46Z" transform="translate(-756.39 -709.19)"/><path class="cls-1" d="M1336.11,972.76a415.62,415.62,0,0,1-28.68-82c-8.48-36.47-22.83-55.75-44.07-73.27-25.17-20.75-58.65-40.74-95.66-36L1165,782c-9,2-57.85,14.25-109,50.81-.15.1,0,.34.12.27,9.43-4.13,67.36-28.79,113.13-31.12,50-2.61,80.52,38.25,80.52,38.25a120.89,120.89,0,0,1,17.29,31.4c.31.83,5.62,20.55,6.42,23.24,5,16.78.84,24,19,54.87,18,30.58,40,25.77,43.42,23.25a.13.13,0,1,0,.1-.23Z" transform="translate(-756.39 -709.19)"/></g></svg>